Coordinates
version=1
nRows=17
nColumns=33
inDegrees=yes

Units are S.I. units (second, meters, Newtons, ...)
Angles are in degrees.

endheader
time	ground_thorax_rot_x	ground_thorax_rot_y	ground_thorax_rot_z	ground_thorax_tx	ground_thorax_ty	ground_thorax_tz	clav_prot_r	clav_elev_r	scapula_abduction_r	scapula_elevation_r	scapula_upward_rot_r	scapula_winging_r	shoulder_elv_r	plane_of_elev_r	axial_rot_r	elbow_flexion_r	pro_sup_r	wrist_flex_r	wrist_dev_r	clav_prot_l	clav_elev_l	scapula_abduction_l	scapula_elevation_l	scapula_upward_rot_l	scapula_winging_l	shoulder_elv_l	plane_of_elev_l	axial_rot_l	elbow_flexion_l	pro_sup_l	wrist_flex_l	wrist_dev_l	
6.3400	-37.666630	-2.464004	3.418776	-51.536609	805.448924	2.468146	5.822816	-45.000000	44.999990	-45.000000	-10.444322	-1171.697342	-4256.217428	29.083598	76.206681	1449.215407	362.073701	16.394043	12.936604	16.414736	41.137526	-44.999997	-41.838828	-31.010883	1879.289907	1505.822789	24.432826	-24.554778	367.614236	372.699312	15.035375	-19.834782	
6.3500	-37.638820	-2.854047	3.536347	-49.635517	802.868900	3.331162	5.894778	-45.000000	44.999983	-45.000000	-10.722498	-1171.494434	-4256.377774	28.929178	76.835669	1449.171998	362.878097	16.350045	12.800413	16.457409	40.818221	-44.999994	-41.300608	-30.845456	1879.297208	1505.603820	24.421979	-24.829123	367.200554	371.874227	15.133451	-19.469068	
6.3600	-37.607526	-3.240692	3.649574	-47.835024	800.383171	4.178268	5.941859	-45.000000	44.999969	-45.000000	-10.994462	-1171.290043	-4256.531627	28.762903	77.467195	1449.113497	363.646180	16.298845	12.675559	16.514454	40.496461	-44.999989	-40.763060	-30.656822	1879.284325	1505.415937	24.365684	-25.085048	366.799734	371.113594	15.225999	-19.115550	
6.3700	-37.570942	-3.581066	3.692391	-46.242277	798.095007	5.000510	6.004982	-45.000000	44.999944	-45.000000	-11.243062	-1171.130293	-4256.672520	28.648070	78.030969	1449.057890	364.202116	16.242494	12.559506	16.435219	40.168270	-44.999981	-40.223076	-30.392923	1879.298122	1505.259261	24.297522	-25.321432	366.435570	370.616734	15.290389	-18.806462	
6.3800	-37.530358	-3.893629	3.679564	-44.883604	796.025316	5.784316	6.044078	-45.000000	44.999900	-45.000000	-11.460686	-1170.977956	-4256.788855	28.540959	78.547189	1449.003428	364.631366	16.181321	12.475629	16.310115	39.827730	-44.999965	-39.694320	-30.054101	1879.313473	1505.131114	24.181137	-25.517655	366.090923	370.306762	15.323484	-18.530341	
6.3900	-37.494858	-4.166240	3.595373	-43.800014	794.207555	6.515054	6.066642	-45.000000	44.999821	-45.000000	-11.623777	-1170.851757	-4256.892611	28.449076	78.984136	1448.955160	364.964618	16.125400	12.418582	16.166473	39.522567	-44.999938	-39.208833	-29.681137	1879.350951	1505.017608	24.070923	-25.683780	365.774751	370.159762	15.319118	-18.295524	
6.4000	-37.472193	-4.406040	3.446124	-43.010002	792.649389	7.178330	6.057956	-45.000000	44.999679	-45.000000	-11.740341	-1170.732775	-4256.983164	28.354737	79.350155	1448.915860	365.279071	16.078096	12.389680	16.045821	39.264326	-44.999889	-38.787930	-29.286117	1879.386701	1504.923450	23.950722	-25.807813	365.478480	370.107716	15.284685	-18.094427	
6.4100	-37.472306	-4.612705	3.232719	-42.520879	791.342773	7.762269	6.028919	-45.000000	44.999424	-45.000000	-11.805518	-1170.629580	-4257.073272	28.259388	79.637482	1448.889999	365.639342	16.050342	12.378576	15.975582	39.098504	-44.999801	-38.460906	-28.920066	1879.434521	1504.834055	23.869065	-25.893086	365.205369	370.088350	15.223964	-17.929194	
6.4200	-37.487612	-4.813643	2.989808	-42.338402	790.272593	8.259078	5.991698	-45.000000	44.998969	-45.000000	-11.874581	-1170.537971	-4257.151761	28.164548	79.875972	1448.879900	366.075941	16.042110	12.376872	15.930572	38.994659	-44.999644	-38.210087	-28.591313	1879.482855	1504.763083	23.791200	-25.919805	364.955726	370.077444	15.146140	-17.794537	
6.4300	-37.520236	-5.002984	2.721865	-42.467245	789.416860	8.665247	5.971732	-45.000000	44.998153	-45.000000	-11.950936	-1170.485965	-4257.234672	28.088082	80.068107	1448.877883	366.587778	16.057561	12.363984	15.896545	38.976945	-44.999362	-38.040983	-28.341853	1879.557676	1504.702291	23.768856	-25.898551	364.741379	370.073727	15.061069	-17.698671	
6.4400	-37.563366	-5.194725	2.456614	-42.911455	788.748192	8.981002	5.961746	-45.000000	44.996692	-45.000000	-12.068172	-1170.464337	-4257.307559	28.019238	80.255858	1448.886158	367.168363	16.090702	12.337950	15.863702	39.007007	-44.998858	-37.931173	-28.146194	1879.632912	1504.667558	23.747509	-25.807506	364.554539	370.082386	14.978318	-17.634589	
6.4500	-37.618261	-5.382819	2.189584	-43.674931	788.236743	9.209611	5.967109	-45.000000	44.994071	-45.000000	-12.212301	-1170.476385	-4257.375615	27.957667	80.451764	1448.899064	367.798269	16.140986	12.299028	15.839580	39.078346	-44.997954	-37.886302	-28.021873	1879.727362	1504.637681	23.759919	-25.657818	364.392319	370.113887	14.906353	-17.603771	
6.4600	-37.671939	-5.591386	1.957584	-44.761258	787.853370	9.356505	5.986131	-45.000000	44.989388	-45.000000	-12.416110	-1170.522006	-4257.419662	27.896653	80.684255	1448.923796	368.457653	16.203150	12.249909	15.821993	39.152764	-44.996337	-37.877195	-27.958316	1879.823034	1504.620283	23.756228	-25.443296	364.246799	370.175180	14.838692	-17.597758	
6.4700	-37.730693	-5.800686	1.742010	-46.172893	787.572108	9.428546	6.027394	-45.000000	44.980968	-45.000000	-12.653668	-1170.613861	-4257.457067	27.846225	80.943750	1448.949326	369.120506	16.276403	12.183256	15.820675	39.242035	-44.993432	-37.918932	-27.985655	1879.939314	1504.598222	23.790476	-25.202292	364.122650	370.272114	14.786250	-17.618599	
6.4800	-37.789371	-6.023010	1.566766	-47.909958	787.371683	9.433277	6.081139	-45.000000	44.965974	-45.000000	-12.945245	-1170.747719	-4257.470858	27.794084	81.242424	1448.988026	369.768632	16.355814	12.106218	15.833974	39.339923	-44.988255	-37.991283	-28.071079	1880.050500	1504.585722	23.803078	-24.938601	364.016994	370.398284	14.728833	-17.659283	
6.4900	-37.856191	-6.255768	1.426281	-49.969016	787.236223	9.378289	6.155945	-45.000000	44.938866	-45.000000	-13.298943	-1170.910870	-4257.472988	27.738970	81.575082	1449.029378	370.386071	16.438779	12.020177	15.862354	39.428570	-44.978903	-38.106414	-28.243583	1880.165378	1504.577523	23.822741	-24.699863	363.930122	370.551836	14.678744	-17.715718	
6.5000	-37.920026	-6.499761	1.323943	-52.342362	787.155272	9.270671	6.244927	-45.000000	44.891005	-45.000000	-13.732453	-1171.104356	-4257.452628	27.693063	81.940764	1449.075912	370.959341	16.519300	11.928325	15.901103	39.518752	-44.962375	-38.230019	-28.449219	1880.283595	1504.582877	23.808822	-24.504842	363.866763	370.719451	14.606833	-17.784669	
